inDegrees=yes
name=ik_S52_A01_T02
DataType=double
version=3
OpenSimVersion=4.3-2021-08-27-4bc7ad9
endheader
time	pelvis_tilt	pelvis_list	pelvis_rotation	pelvis_tx	pelvis_ty	pelvis_tz	hip_flexion_r	hip_adduction_r	hip_rotation_r	knee_angle_r	knee_angle_r_beta	ankle_angle_r	subtalar_angle_r	mtp_angle_r	hip_flexion_l	hip_adduction_l	hip_rotation_l	knee_angle_l	knee_angle_l_beta	ankle_angle_l	subtalar_angle_l	mtp_angle_l	lumbar_extension	lumbar_bending	lumbar_rotation	arm_flex_r	arm_add_r	arm_rot_r	elbow_flex_r	pro_sup_r	wrist_flex_r	wrist_dev_r	arm_flex_l	arm_add_l	arm_rot_l	elbow_flex_l	pro_sup_l	wrist_flex_l	wrist_dev_l
37.7200000000003	-2.478446549038305	-4.293144919863354	-83.6917263997842	0	0.9399999999999999	0	7.540652737878047	4.583405678500058	-9.098945131615567	4.633427873900805	0.08086857205324968	0	0	0	2.588586866014532	-8.955274340135931	-1.733620969611587	45.15674918140482	0.7881339527127683	0	0	0	0	0	0	42.4964540722786	-42.4964540722786	4.968049528344991	84.55341450607709	85.03195074474669	0	0	42.4964540722786	-42.4964540722786	4.968049528344991	84.55341450607709	85.03195074474101	0	0
37.7400000000003	-2.560304401416726	-4.174472386740981	-83.90775734237035	0	0.9399999999999999	0	6.792020115089001	4.993952072227147	-8.774935988294599	4.392736348323228	0.07666771245027282	0	0	0	4.370195379634071	-8.858508494087888	-3.005656453649435	46.04537154089633	0.8036433386927357	0	0	0	0	0	0	42.50329583222958	-42.50329583222958	4.968200392956573	84.55552323800411	85.03179988014095	0	0	42.50329583222958	-42.50329583222958	4.968200392956573	84.55552323800411	85.0317998801353	0	0
37.7600000000003	-2.618663919780372	-4.041839135267526	-84.08102754371981	0	0.9399999999999999	0	6.079292381114199	5.288942691700453	-8.971850414518013	4.283830861784873	0.07476695313669215	0	0	0	5.942042425859039	-8.684512208288396	-2.474912124021473	46.09576618155779	0.8045228910976376	0	0	0	0	0	0	42.50829257773652	-42.50829257773652	4.96831009314229	84.55705658767323	85.0316901799595	0	0	42.50829257773652	-42.50829257773652	4.96831009314229	84.55705658767323	85.03169017995383	0	0
37.78000000000031	-2.704704368496038	-4.163592751774884	-84.56840342991862	0	0.9399999999999999	0	5.074339325409234	5.647722852439426	-9.103505663412623	4.169303963806628	0.07276808168487614	0	0	0	5.79456802001227	-8.547824907544697	-2.953732280383008	44.24208547122814	0.7721700594216782	0	0	0	0	0	0	42.50883383145352	-42.50883383145352	4.96832393943895	84.55725012820486	85.03167633366333	0	0	42.50883383145352	-42.50883383145352	4.96832393943895	84.55725012820486	85.03167633365767	0	0
37.80000000000031	-2.699683007012702	-4.135927353483098	-84.5709484944737	0	0.9399999999999999	0	4.369248287493274	5.804918545522505	-9.693637701284592	4.195210471435119	0.07322023554068635	0	0	0	5.853387159482224	-8.252626596738487	-2.937342140462023	41.7075511387699	0.7279340903154452	0	0	0	0	0	0	42.5097598270591	-42.5097598270591	4.968347581187942	84.55758058739033	85.03165269191527	0	0	42.5097598270591	-42.5097598270591	4.968347581187942	84.55758058739033	85.0316526919096	0	0
37.82000000000031	-2.685817344136632	-4.495118735237547	-85.25936410296002	0	0.9399999999999999	0	3.338439324276821	6.018310463710222	-9.355889538502495	4.055813127704319	0.0707872929240496	0	0	0	9.536473257672158	-7.614413694251827	-1.797995467218103	42.64232638519158	0.7442489961316449	0	0	0	0	0	0	42.51955181016033	-42.51955181016033	4.968562498407614	84.56058462294692	85.0314377747039	0	0	42.51955181016033	-42.51955181016033	4.968562498407614	84.56058462294692	85.03143777469828	0	0
37.84000000000032	-2.647579903795406	-4.747266654305681	-85.74690352041324	0	0.9399999999999999	0	2.509177350542151	6.120073196256151	-9.018661973444324	4.294981333987906	0.07496156558978719	0	0	0	10.18985540690363	-7.408212300631804	-2.244900314879449	40.21285728804198	0.7018467613109303	0	0	0	0	0	0	42.52525862375698	-42.52525862375698	4.968688274766227	84.56234267987725	85.03131199835012	0	0	42.52525862375698	-42.52525862375698	4.968688274766227	84.56234267987725	85.03131199834456	0	0
37.86000000000032	-2.637924611849532	-4.897473234516319	-86.09839999099034	0	0.9399999999999999	0	2.285897141940077	6.139284566810224	-8.758324052733093	4.954341201509822	0.08646956623355827	0	0	0	10.90440196810963	-7.043059016239193	-2.800683507206303	37.47228420215806	0.6540147375707146	0	0	0	0	0	0	42.53430500823054	-42.53430500823054	4.968885333415474	84.56509709297764	85.03111493970849	0	0	42.53430500823054	-42.53430500823054	4.968885333415474	84.56509709297764	85.03111493970297	0	0
37.88000000000032	-2.698472931437941	-4.92518740975201	-86.38277597804338	0	0.9399999999999999	0	1.803055652557479	6.288461725756244	-8.579906381663992	5.263581641650813	0.09186683009433498	0	0	0	10.84601610135275	-6.900588377812661	-3.061972997069658	33.77714906914428	0.5895224631935055	0	0	0	0	0	0	42.53530202648825	-42.53530202648825	4.968910391334329	84.56544734656715	85.03108988179063	0	0	42.53530202648825	-42.53530202648825	4.968910391334329	84.56544734656715	85.03108988178516	0	0
37.90000000000033	-2.765800102675808	-4.916340118848009	-86.64543993582214	0	0.9399999999999999	0	1.720370152792302	6.328097467092714	-8.464684997061672	5.753571817725073	0.1004187719692576	0	0	0	11.89337191959204	-6.417227543536018	-4.231652857393017	31.26912267692656	0.5457491449223917	0	0	0	0	0	0	42.54261106821382	-42.54261106821382	4.969069585050243	84.56767249754328	85.03093068808082	0	0	42.54261106821382	-42.54261106821382	4.969069585050243	84.56767249754328	85.03093068807536	0	0
